<svg width="24" height="30" viewBox="0 0 24 30" xmlns="http://www.w3.org/2000/svg">
<path d="M8.08067 26.4196C8.0806 26.4274 8.08008 26.4352 8.08008 26.443C8.08008 28.4075 9.67258 30 11.637 30C13.6015 30 15.194 28.4075 15.194 26.443C15.194 26.4352 15.1935 26.4274 15.1934 26.4196H8.08067Z"/>
<path d="M22.9934 21.9734L19.7922 17.2708C19.7922 15.8313 19.7922 12.3138 19.7922 11.4039C19.7922 7.4472 16.9744 4.14907 13.2361 3.40582V1.59916C13.236 0.716015 12.5201 0 11.6369 0C10.7537 0 10.0377 0.716015 10.0377 1.59916V3.40589C6.29945 4.1492 3.48163 7.44733 3.48163 11.4039C3.48163 12.9529 3.48163 16.3731 3.48163 17.2709L0.280361 21.9735C-0.0568451 22.4688 -0.0925054 23.11 0.187683 23.6397C0.467871 24.1693 1.01793 24.5006 1.61717 24.5006H21.6566C22.2558 24.5006 22.8059 24.1693 23.0861 23.6397C23.3663 23.1099 23.3306 22.4687 22.9934 21.9734Z"/>
</svg>
