<svg width="56" height="54" viewBox="0 0 56 54" xmlns="http://www.w3.org/2000/svg">
<path fill-rule="evenodd" clip-rule="evenodd" d="M35.0275 0H39.9686V10.2118H35.0275V4.17255H21.0824V10.3216H16.1412V0.109804H18.0078V0H35.0275ZM3.95294 12.298H51.9373C54.1333 12.298 55.8902 14.0549 55.8902 16.251V24.9255H33.4902V22.8392H22.5098V24.9255H0V16.251C0 14.0549 1.75686 12.298 3.95294 12.298ZM55.7804 27.0118C55.8902 27.451 56 27.8902 56 28.3294V49.4118C56 51.6078 54.1333 53.3647 52.0471 53.3647H4.06275C1.86667 53.3647 0.109804 51.6078 0.109804 49.4118V28.2196C0.109804 27.7804 0.219608 27.3412 0.329412 26.902H22.5098V34.8078H33.4902V26.902H55.7804V27.0118Z"/>
</svg>
